<?xml version="1.0" encoding="UTF-8" standalone="no"?>
<!DOCTYPE svg PUBLIC "-//W3C//DTD SVG 1.1//EN"
 "http://www.w3.org/Graphics/SVG/1.1/DTD/svg11.dtd">
<!-- Generated by graphviz version 2.38.0 (20140413.2041)
 -->
<!-- Title: models_diagram Pages: 1 -->
<svg width="387pt" height="225pt"
 viewBox="0.00 0.00 387.10 225.00" xmlns="http://www.w3.org/2000/svg" xmlns:xlink="http://www.w3.org/1999/xlink">
<g id="graph0" class="graph" transform="scale(1 1) rotate(0) translate(4 221)">
<title>models_diagram</title>
<polygon fill="none" stroke="none" points="-4,4 -4,-221 383.096,-221 383.096,4 -4,4"/>
<!-- _diagram_info -->
<g id="node1" class="node"><title>_diagram_info</title>
<text text-anchor="start" x="8" y="-202.6" font-family="Times,serif" font-size="13.00">Models diagram</text>
<text text-anchor="start" x="8" y="-189.6" font-family="Times,serif" font-size="13.00">Date: Apr 08 2016 &#45; 21:07</text>
<text text-anchor="start" x="8" y="-176.6" font-family="Times,serif" font-size="13.00">Migration version: 20160408233607</text>
<text text-anchor="start" x="8" y="-163.6" font-family="Times,serif" font-size="13.00">Generated by RailRoady 1.4.2</text>
<text text-anchor="start" x="8" y="-150.6" font-family="Times,serif" font-size="13.00">http://railroady.prestonlee.com</text>
</g>
<!-- Inventory -->
<g id="node2" class="node"><title>Inventory</title>
<ellipse fill="none" stroke="black" cx="269.688" cy="-180.5" rx="44.475" ry="18"/>
<text text-anchor="middle" x="269.688" y="-176.3" font-family="Times,serif" font-size="14.00">Inventory</text>
</g>
<!-- Operation -->
<g id="node3" class="node"><title>Operation</title>
<ellipse fill="none" stroke="black" cx="269.688" cy="-18" rx="45.4355" ry="18"/>
<text text-anchor="middle" x="269.688" y="-13.8" font-family="Times,serif" font-size="14.00">Operation</text>
</g>
<!-- Inventory&#45;&gt;Operation -->
<g id="edge1" class="edge"><title>Inventory&#45;&gt;Operation</title>
<path fill="none" stroke="#02e376" d="M264.6,-154.079C262.429,-124.675 262.385,-76.4552 264.467,-46.2837"/>
<ellipse fill="none" stroke="#02e376" cx="264.97" cy="-158.339" rx="4" ry="4"/>
<polygon fill="#02e376" stroke="#02e376" points="264.489,-46.0174 269.814,-36.4312 264.91,-41.0351 265.33,-36.0528 265.33,-36.0528 265.33,-36.0528 264.91,-41.0351 260.846,-35.6744 264.489,-46.0174 264.489,-46.0174"/>
</g>
<!-- Worker -->
<g id="node4" class="node"><title>Worker</title>
<ellipse fill="none" stroke="black" cx="342.688" cy="-90" rx="36.3169" ry="18"/>
<text text-anchor="middle" x="342.688" y="-85.8" font-family="Times,serif" font-size="14.00">Worker</text>
</g>
<!-- Inventory&#45;&gt;Worker -->
<g id="edge2" class="edge"><title>Inventory&#45;&gt;Worker</title>
<path fill="none" stroke="#e9e427" d="M288.344,-156.883C298.94,-144.036 312.198,-127.964 322.966,-114.91"/>
<ellipse fill="none" stroke="#e9e427" cx="285.622" cy="-160.182" rx="4.00002" ry="4.00002"/>
<polygon fill="#e9e427" stroke="#e9e427" points="323.266,-114.546 333.1,-109.695 326.447,-110.689 329.629,-106.832 329.629,-106.832 329.629,-106.832 326.447,-110.689 326.157,-103.968 323.266,-114.546 323.266,-114.546"/>
</g>
<!-- Operation&#45;&gt;Inventory -->
<g id="edge3" class="edge"><title>Operation&#45;&gt;Inventory</title>
<path fill="none" stroke="#241da3" d="M274.769,-44.3252C276.992,-74.3312 276.994,-124.031 274.776,-154.079"/>
<ellipse fill="none" stroke="#241da3" cx="274.394" cy="-40.0376" rx="4" ry="4"/>
<ellipse fill="#241da3" stroke="#241da3" cx="274.405" cy="-158.339" rx="4" ry="4"/>
</g>
<!-- Worker&#45;&gt;Operation -->
<g id="edge4" class="edge"><title>Worker&#45;&gt;Operation</title>
<path fill="none" stroke="#375623" d="M320.616,-67.8354C312.1,-59.6689 302.334,-50.3046 293.647,-41.9749"/>
<ellipse fill="none" stroke="#375623" cx="323.6" cy="-70.6962" rx="4.00002" ry="4.00002"/>
<polygon fill="#375623" stroke="#375623" points="293.567,-41.8984 289.464,-31.7291 289.959,-38.4378 286.35,-34.9772 286.35,-34.9772 286.35,-34.9772 289.959,-38.4378 283.235,-38.2252 293.567,-41.8984 293.567,-41.8984"/>
</g>
</g>
</svg>
