<?xml version="1.0" encoding="UTF-8" standalone="no"?>
<!DOCTYPE svg PUBLIC "-//W3C//DTD SVG 1.1//EN"
 "http://www.w3.org/Graphics/SVG/1.1/DTD/svg11.dtd">
<!-- Generated by graphviz version 2.38.0 (20140413.2041)
 -->
<!-- Title: models_diagram Pages: 1 -->
<svg width="643pt" height="397pt"
 viewBox="0.00 0.00 642.55 397.00" xmlns="http://www.w3.org/2000/svg" xmlns:xlink="http://www.w3.org/1999/xlink">
<g id="graph0" class="graph" transform="scale(1 1) rotate(0) translate(4 393)">
<title>models_diagram</title>
<polygon fill="none" stroke="none" points="-4,4 -4,-393 638.55,-393 638.55,4 -4,4"/>
<!-- _diagram_info -->
<g id="node1" class="node"><title>_diagram_info</title>
<text text-anchor="start" x="8" y="-346.6" font-family="Times,serif" font-size="13.00">Models diagram</text>
<text text-anchor="start" x="8" y="-333.6" font-family="Times,serif" font-size="13.00">Date: Apr 08 2016 &#45; 21:07</text>
<text text-anchor="start" x="8" y="-320.6" font-family="Times,serif" font-size="13.00">Migration version: 20160408233607</text>
<text text-anchor="start" x="8" y="-307.6" font-family="Times,serif" font-size="13.00">Generated by RailRoady 1.4.2</text>
<text text-anchor="start" x="8" y="-294.6" font-family="Times,serif" font-size="13.00">http://railroady.prestonlee.com</text>
</g>
<!-- Inventory -->
<g id="node2" class="node"><title>Inventory</title>
<path fill="none" stroke="black" d="M237.825,-260.5C237.825,-260.5 461.55,-260.5 461.55,-260.5 467.55,-260.5 473.55,-266.5 473.55,-272.5 473.55,-272.5 473.55,-376.5 473.55,-376.5 473.55,-382.5 467.55,-388.5 461.55,-388.5 461.55,-388.5 237.825,-388.5 237.825,-388.5 231.825,-388.5 225.825,-382.5 225.825,-376.5 225.825,-376.5 225.825,-272.5 225.825,-272.5 225.825,-266.5 231.825,-260.5 237.825,-260.5"/>
<text text-anchor="middle" x="349.688" y="-373.3" font-family="Times,serif" font-size="14.00">Inventory</text>
<polyline fill="none" stroke="black" points="225.825,-366.5 473.55,-366.5 "/>
<text text-anchor="start" x="233.825" y="-351.3" font-family="Times,serif" font-size="14.00">id :integer</text>
<text text-anchor="start" x="233.825" y="-337.3" font-family="Times,serif" font-size="14.00">wheel :character varying</text>
<text text-anchor="start" x="233.825" y="-323.3" font-family="Times,serif" font-size="14.00">size :integer</text>
<text text-anchor="start" x="233.825" y="-309.3" font-family="Times,serif" font-size="14.00">description :text</text>
<text text-anchor="start" x="233.825" y="-295.3" font-family="Times,serif" font-size="14.00">serial_number :character varying</text>
<text text-anchor="start" x="233.825" y="-281.3" font-family="Times,serif" font-size="14.00">created_at :timestamp without time zone</text>
<text text-anchor="start" x="233.825" y="-267.3" font-family="Times,serif" font-size="14.00">updated_at :timestamp without time zone</text>
</g>
<!-- Operation -->
<g id="node3" class="node"><title>Operation</title>
<path fill="none" stroke="black" d="M237.825,-0.5C237.825,-0.5 461.55,-0.5 461.55,-0.5 467.55,-0.5 473.55,-6.5 473.55,-12.5 473.55,-12.5 473.55,-74.5 473.55,-74.5 473.55,-80.5 467.55,-86.5 461.55,-86.5 461.55,-86.5 237.825,-86.5 237.825,-86.5 231.825,-86.5 225.825,-80.5 225.825,-74.5 225.825,-74.5 225.825,-12.5 225.825,-12.5 225.825,-6.5 231.825,-0.5 237.825,-0.5"/>
<text text-anchor="middle" x="349.688" y="-71.3" font-family="Times,serif" font-size="14.00">Operation</text>
<polyline fill="none" stroke="black" points="225.825,-64.5 473.55,-64.5 "/>
<text text-anchor="start" x="233.825" y="-49.3" font-family="Times,serif" font-size="14.00">id :integer</text>
<text text-anchor="start" x="233.825" y="-35.3" font-family="Times,serif" font-size="14.00">worker_id :integer</text>
<text text-anchor="start" x="233.825" y="-21.3" font-family="Times,serif" font-size="14.00">created_at :timestamp without time zone</text>
<text text-anchor="start" x="233.825" y="-7.3" font-family="Times,serif" font-size="14.00">updated_at :timestamp without time zone</text>
</g>
<!-- Inventory&#45;&gt;Operation -->
<g id="edge1" class="edge"><title>Inventory&#45;&gt;Operation</title>
<path fill="none" stroke="#7bad69" d="M343.707,-251.95C342.517,-203.545 342.708,-140.698 344.278,-96.9188"/>
<ellipse fill="none" stroke="#7bad69" cx="343.82" cy="-256.192" rx="4" ry="4"/>
<polygon fill="#7bad69" stroke="#7bad69" points="344.284,-96.7667 349.179,-86.9539 344.484,-91.7707 344.683,-86.7746 344.683,-86.7746 344.683,-86.7746 344.484,-91.7707 340.186,-86.5953 344.284,-96.7667 344.284,-96.7667"/>
</g>
<!-- Worker -->
<g id="node4" class="node"><title>Worker</title>
<path fill="none" stroke="black" d="M398.825,-123.5C398.825,-123.5 622.55,-123.5 622.55,-123.5 628.55,-123.5 634.55,-129.5 634.55,-135.5 634.55,-135.5 634.55,-211.5 634.55,-211.5 634.55,-217.5 628.55,-223.5 622.55,-223.5 622.55,-223.5 398.825,-223.5 398.825,-223.5 392.825,-223.5 386.825,-217.5 386.825,-211.5 386.825,-211.5 386.825,-135.5 386.825,-135.5 386.825,-129.5 392.825,-123.5 398.825,-123.5"/>
<text text-anchor="middle" x="510.688" y="-208.3" font-family="Times,serif" font-size="14.00">Worker</text>
<polyline fill="none" stroke="black" points="386.825,-201.5 634.55,-201.5 "/>
<text text-anchor="start" x="394.825" y="-186.3" font-family="Times,serif" font-size="14.00">id :integer</text>
<text text-anchor="start" x="394.825" y="-172.3" font-family="Times,serif" font-size="14.00">name :character varying</text>
<text text-anchor="start" x="394.825" y="-158.3" font-family="Times,serif" font-size="14.00">email :character varying</text>
<text text-anchor="start" x="394.825" y="-144.3" font-family="Times,serif" font-size="14.00">created_at :timestamp without time zone</text>
<text text-anchor="start" x="394.825" y="-130.3" font-family="Times,serif" font-size="14.00">updated_at :timestamp without time zone</text>
</g>
<!-- Inventory&#45;&gt;Worker -->
<g id="edge2" class="edge"><title>Inventory&#45;&gt;Worker</title>
<path fill="none" stroke="#88b8b9" d="M423.869,-254.848C432.628,-246.742 441.488,-238.542 450.03,-230.637"/>
<ellipse fill="none" stroke="#88b8b9" cx="420.902" cy="-257.594" rx="4.00002" ry="4.00002"/>
<polygon fill="#88b8b9" stroke="#88b8b9" points="450.105,-230.568 460.5,-227.078 453.774,-227.172 457.444,-223.775 457.444,-223.775 457.444,-223.775 453.774,-227.172 454.387,-220.473 450.105,-230.568 450.105,-230.568"/>
</g>
<!-- Operation&#45;&gt;Inventory -->
<g id="edge3" class="edge"><title>Operation&#45;&gt;Inventory</title>
<path fill="none" stroke="#c9c964" d="M355.027,-94.9918C356.662,-138.839 356.876,-202.831 355.669,-251.95"/>
<ellipse fill="none" stroke="#c9c964" cx="354.855" cy="-90.7713" rx="4" ry="4"/>
<ellipse fill="#c9c964" stroke="#c9c964" cx="355.555" cy="-256.192" rx="4" ry="4"/>
</g>
<!-- Worker&#45;&gt;Operation -->
<g id="edge4" class="edge"><title>Worker&#45;&gt;Operation</title>
<path fill="none" stroke="#e2d048" d="M442.417,-118.223C431.821,-109.799 420.936,-101.144 410.518,-92.8623"/>
<ellipse fill="none" stroke="#e2d048" cx="445.77" cy="-120.889" rx="4.00002" ry="4.00002"/>
<polygon fill="#e2d048" stroke="#e2d048" points="410.484,-92.8347 405.457,-83.089 406.57,-89.7231 402.656,-86.6114 402.656,-86.6114 402.656,-86.6114 406.57,-89.7231 399.856,-90.1339 410.484,-92.8347 410.484,-92.8347"/>
</g>
</g>
</svg>
