<?xml version="1.0" encoding="UTF-8" standalone="no"?>
<!DOCTYPE svg PUBLIC "-//W3C//DTD SVG 1.1//EN"
 "http://www.w3.org/Graphics/SVG/1.1/DTD/svg11.dtd">
<!-- Generated by graphviz version 2.38.0 (20140413.2041)
 -->
<!-- Title: models_diagram Pages: 1 -->
<svg width="346pt" height="225pt"
 viewBox="0.00 0.00 346.10 225.00" xmlns="http://www.w3.org/2000/svg" xmlns:xlink="http://www.w3.org/1999/xlink">
<g id="graph0" class="graph" transform="scale(1 1) rotate(0) translate(4 221)">
<title>models_diagram</title>
<polygon fill="none" stroke="none" points="-4,4 -4,-221 342.096,-221 342.096,4 -4,4"/>
<!-- _diagram_info -->
<g id="node1" class="node"><title>_diagram_info</title>
<text text-anchor="start" x="8" y="-202.6" font-family="Times,serif" font-size="13.00">Models diagram</text>
<text text-anchor="start" x="8" y="-189.6" font-family="Times,serif" font-size="13.00">Date: Apr 08 2016 &#45; 20:49</text>
<text text-anchor="start" x="8" y="-176.6" font-family="Times,serif" font-size="13.00">Migration version: 20160408233607</text>
<text text-anchor="start" x="8" y="-163.6" font-family="Times,serif" font-size="13.00">Generated by RailRoady 1.4.2</text>
<text text-anchor="start" x="8" y="-150.6" font-family="Times,serif" font-size="13.00">http://railroady.prestonlee.com</text>
</g>
<!-- Inventory -->
<g id="node2" class="node"><title>Inventory</title>
<ellipse fill="none" stroke="black" cx="269.688" cy="-180.5" rx="44.475" ry="18"/>
<text text-anchor="middle" x="269.688" y="-176.3" font-family="Times,serif" font-size="14.00">Inventory</text>
</g>
<!-- Operation -->
<g id="node3" class="node"><title>Operation</title>
<ellipse fill="none" stroke="black" cx="269.688" cy="-18" rx="45.4355" ry="18"/>
<text text-anchor="middle" x="269.688" y="-13.8" font-family="Times,serif" font-size="14.00">Operation</text>
</g>
<!-- Inventory&#45;&gt;Operation -->
<g id="edge1" class="edge"><title>Inventory&#45;&gt;Operation</title>
<path fill="none" stroke="#a979b3" d="M263.262,-154.576C258.46,-132.788 253.268,-100.299 256.688,-72 257.727,-63.4026 259.681,-54.1878 261.765,-45.8926"/>
<ellipse fill="none" stroke="#a979b3" cx="264.163" cy="-158.474" rx="4.00001" ry="4.00001"/>
<polygon fill="#a979b3" stroke="#a979b3" points="261.829,-45.6528 268.761,-37.156 263.121,-40.8228 264.414,-35.9927 264.414,-35.9927 264.414,-35.9927 263.121,-40.8228 260.067,-34.8294 261.829,-45.6528 261.829,-45.6528"/>
</g>
<!-- Worker -->
<g id="node4" class="node"><title>Worker</title>
<ellipse fill="none" stroke="black" cx="301.688" cy="-90" rx="36.3169" ry="18"/>
<text text-anchor="middle" x="301.688" y="-85.8" font-family="Times,serif" font-size="14.00">Worker</text>
</g>
<!-- Inventory&#45;&gt;Worker -->
<g id="edge2" class="edge"><title>Inventory&#45;&gt;Worker</title>
<path fill="none" stroke="#e5e7e7" d="M278.69,-154.603C282.85,-143.098 287.796,-129.42 292.033,-117.701"/>
<ellipse fill="none" stroke="#e5e7e7" cx="277.218" cy="-158.675" rx="4.00001" ry="4.00001"/>
<polygon fill="#e5e7e7" stroke="#e5e7e7" points="292.136,-117.415 299.769,-109.541 293.837,-112.713 295.537,-108.011 295.537,-108.011 295.537,-108.011 293.837,-112.713 291.305,-106.481 292.136,-117.415 292.136,-117.415"/>
</g>
<!-- Worker&#45;&gt;Operation -->
<g id="edge3" class="edge"><title>Worker&#45;&gt;Operation</title>
<path fill="none" stroke="#a0a8f5" d="M290.586,-64.7144C287.722,-58.4507 284.627,-51.6804 281.719,-45.3185"/>
<ellipse fill="none" stroke="#a0a8f5" cx="292.278" cy="-68.4171" rx="4.00002" ry="4.00002"/>
<polygon fill="#a0a8f5" stroke="#a0a8f5" points="281.52,-44.8838 281.455,-33.9181 279.442,-40.3364 277.363,-35.789 277.363,-35.789 277.363,-35.789 279.442,-40.3364 273.27,-37.6599 281.52,-44.8838 281.52,-44.8838"/>
</g>
</g>
</svg>
