<?xml version="1.0" encoding="UTF-8" standalone="no"?>
<!DOCTYPE svg PUBLIC "-//W3C//DTD SVG 1.1//EN"
 "http://www.w3.org/Graphics/SVG/1.1/DTD/svg11.dtd">
<!-- Generated by graphviz version 2.38.0 (20140413.2041)
 -->
<!-- Title: models_diagram Pages: 1 -->
<svg width="558pt" height="397pt"
 viewBox="0.00 0.00 557.55 397.00" xmlns="http://www.w3.org/2000/svg" xmlns:xlink="http://www.w3.org/1999/xlink">
<g id="graph0" class="graph" transform="scale(1 1) rotate(0) translate(4 393)">
<title>models_diagram</title>
<polygon fill="none" stroke="none" points="-4,4 -4,-393 553.55,-393 553.55,4 -4,4"/>
<!-- _diagram_info -->
<g id="node1" class="node"><title>_diagram_info</title>
<text text-anchor="start" x="8" y="-346.6" font-family="Times,serif" font-size="13.00">Models diagram</text>
<text text-anchor="start" x="8" y="-333.6" font-family="Times,serif" font-size="13.00">Date: Apr 08 2016 &#45; 20:49</text>
<text text-anchor="start" x="8" y="-320.6" font-family="Times,serif" font-size="13.00">Migration version: 20160408233607</text>
<text text-anchor="start" x="8" y="-307.6" font-family="Times,serif" font-size="13.00">Generated by RailRoady 1.4.2</text>
<text text-anchor="start" x="8" y="-294.6" font-family="Times,serif" font-size="13.00">http://railroady.prestonlee.com</text>
</g>
<!-- Inventory -->
<g id="node2" class="node"><title>Inventory</title>
<path fill="none" stroke="black" d="M237.825,-260.5C237.825,-260.5 461.55,-260.5 461.55,-260.5 467.55,-260.5 473.55,-266.5 473.55,-272.5 473.55,-272.5 473.55,-376.5 473.55,-376.5 473.55,-382.5 467.55,-388.5 461.55,-388.5 461.55,-388.5 237.825,-388.5 237.825,-388.5 231.825,-388.5 225.825,-382.5 225.825,-376.5 225.825,-376.5 225.825,-272.5 225.825,-272.5 225.825,-266.5 231.825,-260.5 237.825,-260.5"/>
<text text-anchor="middle" x="349.688" y="-373.3" font-family="Times,serif" font-size="14.00">Inventory</text>
<polyline fill="none" stroke="black" points="225.825,-366.5 473.55,-366.5 "/>
<text text-anchor="start" x="233.825" y="-351.3" font-family="Times,serif" font-size="14.00">id :integer</text>
<text text-anchor="start" x="233.825" y="-337.3" font-family="Times,serif" font-size="14.00">wheel :character varying</text>
<text text-anchor="start" x="233.825" y="-323.3" font-family="Times,serif" font-size="14.00">size :integer</text>
<text text-anchor="start" x="233.825" y="-309.3" font-family="Times,serif" font-size="14.00">description :text</text>
<text text-anchor="start" x="233.825" y="-295.3" font-family="Times,serif" font-size="14.00">serial_number :character varying</text>
<text text-anchor="start" x="233.825" y="-281.3" font-family="Times,serif" font-size="14.00">created_at :timestamp without time zone</text>
<text text-anchor="start" x="233.825" y="-267.3" font-family="Times,serif" font-size="14.00">updated_at :timestamp without time zone</text>
</g>
<!-- Operation -->
<g id="node3" class="node"><title>Operation</title>
<path fill="none" stroke="black" d="M237.825,-0.5C237.825,-0.5 461.55,-0.5 461.55,-0.5 467.55,-0.5 473.55,-6.5 473.55,-12.5 473.55,-12.5 473.55,-74.5 473.55,-74.5 473.55,-80.5 467.55,-86.5 461.55,-86.5 461.55,-86.5 237.825,-86.5 237.825,-86.5 231.825,-86.5 225.825,-80.5 225.825,-74.5 225.825,-74.5 225.825,-12.5 225.825,-12.5 225.825,-6.5 231.825,-0.5 237.825,-0.5"/>
<text text-anchor="middle" x="349.688" y="-71.3" font-family="Times,serif" font-size="14.00">Operation</text>
<polyline fill="none" stroke="black" points="225.825,-64.5 473.55,-64.5 "/>
<text text-anchor="start" x="233.825" y="-49.3" font-family="Times,serif" font-size="14.00">id :integer</text>
<text text-anchor="start" x="233.825" y="-35.3" font-family="Times,serif" font-size="14.00">worker_id :integer</text>
<text text-anchor="start" x="233.825" y="-21.3" font-family="Times,serif" font-size="14.00">created_at :timestamp without time zone</text>
<text text-anchor="start" x="233.825" y="-7.3" font-family="Times,serif" font-size="14.00">updated_at :timestamp without time zone</text>
</g>
<!-- Inventory&#45;&gt;Operation -->
<g id="edge1" class="edge"><title>Inventory&#45;&gt;Operation</title>
<path fill="none" stroke="#c547f3" d="M303.465,-252.869C299.057,-243.47 295.273,-233.715 292.688,-224 281.143,-180.621 278.822,-165.694 292.688,-123 295.809,-113.389 300.598,-103.971 306.102,-95.1831"/>
<ellipse fill="none" stroke="#c547f3" cx="305.362" cy="-256.733" rx="4.00002" ry="4.00002"/>
<polygon fill="#c547f3" stroke="#c547f3" points="306.263,-94.9428 315.554,-89.118 309.036,-90.7824 311.809,-86.622 311.809,-86.622 311.809,-86.622 309.036,-90.7824 308.065,-84.126 306.263,-94.9428 306.263,-94.9428"/>
</g>
<!-- Worker -->
<g id="node4" class="node"><title>Worker</title>
<path fill="none" stroke="black" d="M313.825,-123.5C313.825,-123.5 537.55,-123.5 537.55,-123.5 543.55,-123.5 549.55,-129.5 549.55,-135.5 549.55,-135.5 549.55,-211.5 549.55,-211.5 549.55,-217.5 543.55,-223.5 537.55,-223.5 537.55,-223.5 313.825,-223.5 313.825,-223.5 307.825,-223.5 301.825,-217.5 301.825,-211.5 301.825,-211.5 301.825,-135.5 301.825,-135.5 301.825,-129.5 307.825,-123.5 313.825,-123.5"/>
<text text-anchor="middle" x="425.688" y="-208.3" font-family="Times,serif" font-size="14.00">Worker</text>
<polyline fill="none" stroke="black" points="301.825,-201.5 549.55,-201.5 "/>
<text text-anchor="start" x="309.825" y="-186.3" font-family="Times,serif" font-size="14.00">id :integer</text>
<text text-anchor="start" x="309.825" y="-172.3" font-family="Times,serif" font-size="14.00">name :character varying</text>
<text text-anchor="start" x="309.825" y="-158.3" font-family="Times,serif" font-size="14.00">email :character varying</text>
<text text-anchor="start" x="309.825" y="-144.3" font-family="Times,serif" font-size="14.00">created_at :timestamp without time zone</text>
<text text-anchor="start" x="309.825" y="-130.3" font-family="Times,serif" font-size="14.00">updated_at :timestamp without time zone</text>
</g>
<!-- Inventory&#45;&gt;Worker -->
<g id="edge2" class="edge"><title>Inventory&#45;&gt;Worker</title>
<path fill="none" stroke="#ca10f5" d="M385.588,-253.116C389.066,-246.297 392.568,-239.433 395.976,-232.751"/>
<ellipse fill="none" stroke="#ca10f5" cx="383.736" cy="-256.747" rx="4.00002" ry="4.00002"/>
<polygon fill="#ca10f5" stroke="#ca10f5" points="396.01,-232.684 404.563,-225.82 398.282,-228.229 400.554,-223.775 400.554,-223.775 400.554,-223.775 398.282,-228.229 396.545,-221.731 396.01,-232.684 396.01,-232.684"/>
</g>
<!-- Worker&#45;&gt;Operation -->
<g id="edge3" class="edge"><title>Worker&#45;&gt;Operation</title>
<path fill="none" stroke="#032e95" d="M392.432,-116.49C388.245,-109.438 383.98,-102.255 379.845,-95.2905"/>
<ellipse fill="none" stroke="#032e95" cx="394.479" cy="-119.939" rx="4.00002" ry="4.00002"/>
<polygon fill="#032e95" stroke="#032e95" points="379.797,-95.21 378.561,-84.314 377.244,-90.9107 374.691,-86.6114 374.691,-86.6114 374.691,-86.6114 377.244,-90.9107 370.822,-88.9089 379.797,-95.21 379.797,-95.21"/>
</g>
</g>
</svg>
